<?xml version="1.0" encoding="UTF-8"?>
<svg id="Layer_1" xmlns="http://www.w3.org/2000/svg" version="1.1" viewBox="0 0 39 24">
  <!-- Generator: Adobe Illustrator 29.3.1, SVG Export Plug-In . SVG Version: 2.1.0 Build 151)  -->
  <defs>
    <style>
      .st0 {
        fill: #fff;
      }
    </style>
  </defs>
  <path class="st0" d="M11.4,0c1.1,0,2.1,0,3.1.3.9.2,1.7.5,2.4,1,.7.5,1.2,1,1.5,1.8.4.8.5,1.7.5,2.8s-.3,2.2-.8,3c-.5.8-1.3,1.4-2.4,2,1.5.4,2.5,1.1,3.2,2.2.7,1.1,1.1,2.3,1.1,3.8s-.2,2.2-.7,3.1c-.4.9-1.1,1.6-1.9,2.2-.8.6-1.7,1-2.7,1.2-1,.3-2,.4-3.1.4H.3V0h11.1ZM27.4,19.5c.7.7,1.7,1,3,1s1.8-.2,2.4-.7c.7-.5,1.1-1,1.3-1.5h4.1c-.6,2-1.7,3.5-3,4.4-1.4.9-3,1.3-4.9,1.3s-2.5-.2-3.6-.6c-1.1-.4-2-1-2.8-1.8-.7-.8-1.3-1.7-1.7-2.8-.4-1.1-.6-2.3-.6-3.6s.2-2.5.7-3.6c.4-1.1,1-2.1,1.8-2.9.8-.8,1.7-1.4,2.8-1.9,1.1-.5,2.2-.7,3.6-.7s2.7.3,3.8.8c1.1.5,2,1.3,2.7,2.2.7.9,1.2,2,1.5,3.2.3,1.2.4,2.5.3,3.8h-12.3c0,1.3.5,2.6,1.1,3.3h-.1c0,0,0,0,0,0ZM11,19.5c.5,0,1,0,1.4-.2.5,0,.9-.3,1.2-.5.3-.2.6-.5.8-.9.2-.4.3-.9.3-1.5,0-1.2-.4-2.1-1-2.6-.7-.5-1.6-.8-2.7-.8h-5.6v6.5h5.5c0,0,0,0,0,0ZM32.8,10.5c-.6-.6-1.5-1-2.7-1s-1.4.1-1.9.4c-.5.2-.9.6-1.2.9-.3.4-.5.8-.6,1.2-.1.4-.2.8-.2,1.1h7.6c-.1-1.2-.5-2.1-1.1-2.7h0s0,0,0,0ZM10.7,9.5c.9,0,1.7-.2,2.3-.7.6-.4.9-1.2.9-2.1s-.1-1-.3-1.4c-.2-.4-.5-.6-.8-.8-.3-.2-.7-.3-1.2-.4-.4,0-.9-.1-1.3-.1h-4.8v5.5h5.3ZM25.3,1.6h9.6v2.3h-9.6V1.6h0Z"/>
</svg>