<?xml version="1.0" encoding="UTF-8"?>
<svg id="Layer_1" xmlns="http://www.w3.org/2000/svg" version="1.1" viewBox="0 0 39 24">
  <!-- Generator: Adobe Illustrator 29.3.1, SVG Export Plug-In . SVG Version: 2.1.0 Build 151)  -->
  <defs>
    <style>
      .st0 {
        fill: #fff;
      }
    </style>
  </defs>
  <path class="st0" d="M12.9,24h-5V8h5v16ZM10.4,5.8c-1.6,0-2.9-1.3-2.9-2.9s1.3-2.9,2.9-2.9,2.9,1.3,2.9,2.9-1.3,2.9-2.9,2.9ZM31.5,24h-5v-7.8c0-1.9,0-4.2-2.6-4.2s-3,2-3,4.1v7.9h-5V8h4.8v2.2h0c.7-1.3,2.3-2.6,4.7-2.6,5,0,6,3.3,6,7.6v8.8h0Z"/>
</svg>